<?xml version="1.0" encoding="UTF-8" standalone="no"?>
<svg
   xml:space="preserve"
   width="1080px"
   height="1080px"
   version="1.1"
   style="shape-rendering:geometricPrecision; text-rendering:geometricPrecision; image-rendering:optimizeQuality; fill-rule:evenodd; clip-rule:evenodd"
   viewBox="0 0 1080 1079.97"
   id="svg873"
   xmlns="http://www.w3.org/2000/svg"
   xmlns:svg="http://www.w3.org/2000/svg"
   xmlns:rdf="http://www.w3.org/1999/02/22-rdf-syntax-ns#"
   xmlns:cc="http://creativecommons.org/ns#"
   xmlns:dc="http://purl.org/dc/elements/1.1/"><metadata
   id="metadata877"><rdf:RDF><cc:Work
       rdf:about=""><dc:format>image/svg+xml</dc:format><dc:type
         rdf:resource="http://purl.org/dc/dcmitype/StillImage" /></cc:Work></rdf:RDF></metadata>
 <defs
   id="defs867">
  <style
   type="text/css"
   id="style865">
   <![CDATA[
    .fil0 {fill:black;fill-rule:nonzero}
   ]]>
  </style>
 </defs>
 <g
   id="Layer_x0020_1">
  <metadata
   id="CorelCorpID_0Corel-Layer" />
  <path
   id="path870"
   d="m 534.13086,0.015625 c -3.9325,0.035 -7.86055,0.83515645 -11.56055,2.4101562 L 163.73047,155.69531 c -7.39,3.1 -13.18992,9.05024 -16.16992,16.49024 L 2.2109375,534.28516 c -3.03,7.48 -2.93125,15.75062 0.21875,23.14062 L 155.69922,916.27539 c 3.1,7.38 9.05023,13.18992 16.49023,16.16992 l 362.09961,145.34959 c 3.43,1.39 7.13102,2.1295 10.79102,2.1895 H 546 c 3.89,-0.06 7.7607,-0.8488 11.4707,-2.4688 L 916.26953,924.25586 c 7.39,-3.11 13.19992,-9.0602 16.16992,-16.49024 L 1077.8008,545.66406 c 3.01,-7.48 2.9295,-15.74867 -0.2305,-23.13867 L 924.31055,163.73438 c -3.11,-7.40003 -9.07024,-13.19993 -16.49024,-16.16993 L 545.7207,2.1953125 c -3.72,-1.485 -7.65734,-2.2146875 -11.58984,-2.1796875 z"
   transform="translate(0,-0.015)" />
 <g
   id="g959"
   transform="matrix(29.801427,0,0,29.801427,176.37299,211.28023)"
   style="fill:#ff0000;fill-opacity:1"><g
     id="g957"
     style="fill:#ff0000;fill-opacity:1"><g
       id="g939"
       style="fill:#ff0000;fill-opacity:1" /><g
       id="g943"
       style="fill:#ff0000;fill-opacity:1" /><g
       id="g947"
       style="fill:#ff0000;fill-opacity:1" /><g
       id="g951"
       style="fill:#ff0000;fill-opacity:1" /><g
       id="g955"
       style="fill:#ff0000;fill-opacity:1" /></g></g></g>
</svg>
