<?xml version="1.0" encoding="UTF-8"?>
<!DOCTYPE svg PUBLIC "-//W3C//DTD SVG 1.1//EN" "http://www.w3.org/Graphics/SVG/1.1/DTD/svg11.dtd">
<!-- Creator: CorelDRAW 2019 (64-Bit) -->
<svg xmlns="http://www.w3.org/2000/svg" xml:space="preserve" width="1080px" height="1080px" version="1.1" style="shape-rendering:geometricPrecision; text-rendering:geometricPrecision; image-rendering:optimizeQuality; fill-rule:evenodd; clip-rule:evenodd"
viewBox="0 0 1080 1079.98"
 xmlns:xlink="http://www.w3.org/1999/xlink"
 xmlns:xodm="http://www.corel.com/coreldraw/odm/2003">
 <defs>
  <style type="text/css">
   <![CDATA[
    .fil1 {fill:black}
    .fil0 {fill:black;fill-rule:nonzero}
   ]]>
  </style>
 </defs>
 <g id="Layer_x0020_1">
  <metadata id="CorelCorpID_0Corel-Layer"/>
  <g id="_1841713302352">
   <path class="fil0" d="M545.5 1079.98c-2.1,0 -4.26,-0.21 -6.39,-0.63 -2.1,-0.4 -4.18,-1.01 -6.18,-1.81l-359.57 -144.35c-4.16,-1.67 -7.91,-4.13 -11.04,-7.21 -3.13,-3.06 -5.66,-6.74 -7.39,-10.87l-152.21 -356.33c-0.87,-2.05 -1.54,-4.17 -1.99,-6.33 -0.45,-2.14 -0.69,-4.35 -0.71,-6.58l-0.02 -0.39c0.02,-2.18 0.23,-4.33 0.64,-6.41 0.41,-2.09 1.02,-4.16 1.83,-6.17l144.34 -359.54c1.67,-4.17 4.13,-7.92 7.21,-11.06 3.06,-3.12 6.75,-5.66 10.87,-7.39l356.33 -152.19c2.05,-0.88 4.17,-1.54 6.33,-1.99 2.15,-0.45 4.37,-0.69 6.6,-0.71 0.05,-0.03 0.55,-0.03 0.6,0 2.14,0.02 4.24,0.23 6.27,0.63 2.05,0.41 4.08,1.01 6.07,1.8l359.56 144.34c4.16,1.67 7.91,4.13 11.05,7.22 3.12,3.06 5.65,6.74 7.39,10.87l152.2 356.29c1.76,4.12 2.67,8.51 2.71,12.92 0.04,4.39 -0.77,8.8 -2.46,12.96l-144.34 359.54c-1.66,4.15 -4.13,7.91 -7.21,11.05 -3.06,3.13 -6.74,5.66 -10.87,7.4l-356.29 152.19c-2.13,0.91 -4.31,1.6 -6.5,2.04 -2.3,0.48 -4.59,0.71 -6.83,0.71zm-313.83 -224.77l313.15 125.69 310.32 -132.52 125.74 -313.15 -132.52 -310.32 -313.16 -125.74 -310.41 132.57 -125.7 313.14 132.58 310.33z"/>
   <polygon class="fil1" points="505.72,678.52 714.73,678.52 714.73,775.64 365.28,775.64 365.28,687.36 502.79,535.14 365.94,392.53 365.94,304.01 714.73,304.01 714.73,401.12 510.17,401.12 637,533.94 "/>
  </g>
 </g>
</svg>
