<?xml version="1.0" encoding="UTF-8"?>
<!DOCTYPE svg PUBLIC "-//W3C//DTD SVG 1.1//EN" "http://www.w3.org/Graphics/SVG/1.1/DTD/svg11.dtd">
<!-- Creator: CorelDRAW 2019 (64-Bit) -->
<svg xmlns="http://www.w3.org/2000/svg" xml:space="preserve" width="1080px" height="1080px" version="1.1" style="shape-rendering:geometricPrecision; text-rendering:geometricPrecision; image-rendering:optimizeQuality; fill-rule:evenodd; clip-rule:evenodd"
viewBox="0 0 1080 1079.97"
 xmlns:xlink="http://www.w3.org/1999/xlink"
 xmlns:xodm="http://www.corel.com/coreldraw/odm/2003">
 <defs>
  <style type="text/css">
   <![CDATA[
    .fil0 {fill:black;fill-rule:nonzero}
   ]]>
  </style>
 </defs>
 <g id="Layer_x0020_1">
  <metadata id="CorelCorpID_0Corel-Layer"/>
  <path class="fil0" d="M1077.57 522.51l-153.26 -358.79c-3.11,-7.4 -9.07,-13.2 -16.49,-16.17l-362.1 -145.37c-7.44,-2.97 -15.75,-2.92 -23.15,0.23l-358.84 153.27c-7.39,3.1 -13.19,9.05 -16.17,16.49l-145.35 362.1c-3.03,7.48 -2.93,15.75 0.22,23.14l153.27 358.85c3.1,7.38 9.05,13.19 16.49,16.17l362.1 145.35c3.43,1.39 7.13,2.13 10.79,2.19l0.92 0c3.89,-0.06 7.76,-0.85 11.47,-2.47l358.8 -153.26c7.39,-3.11 13.2,-9.06 16.17,-16.49l145.36 -362.1c3.01,-7.48 2.93,-15.75 -0.23,-23.14zm-571.86 156.17l209.02 0 0 97.12 -349.46 0 0 -88.28 137.52 -152.22 -136.86 -142.61 0 -88.52 348.8 0 0 97.11 -204.56 0 126.82 132.82 -131.28 144.58z"/>
 </g>
</svg>
